# xmcd
#
# Track frame offsets:
#	150
#	15048
#	30206
#	45006
#	58984
#	75874
#	91367
#	104384
#	120162
#	135289
#	150510
#	165246
#
# Disc length: 2426 seconds
#
# Revision: 0
# Processed by: cddbd v1.5.2PL0 Copyright (c) Steve Scherf et al.
# Submitted via: audiograbber 1.83.01
#
DISCID=6609780c
DTITLE=Linda Feller - Frischer Wind
DYEAR=2016
DGENRE=Deutsch Country
TTITLE0=Frischer Wind
TTITLE1=Billy Bob's Texas
TTITLE2=Wir müssen damit aufhörn
TTITLE3=So schnell geht die Welt nicht unter
TTITLE4=Jackpot
TTITLE5=Unser Glück
TTITLE6=Was glaubst du, wer du wohl bist
TTITLE7=Tausend bittersüße Tränen
TTITLE8=Über uns nur der Himmel
TTITLE9=Morgenrot
TTITLE10=Heut feiern wir das Leben
TTITLE11=Ich bin nicht RockeFeller
EXTD=
EXTT0=
EXTT1=
EXTT2=
EXTT3=
EXTT4=
EXTT5=
EXTT6=
EXTT7=
EXTT8=
EXTT9=
EXTT10=
EXTT11=
PLAYORDER=
